<?xml version="1.0" standalone="no"?>
<svg xmlns:xlink="http://www.w3.org/1999/xlink" id="wave" style="transform:rotate(180deg); transition: 0.3s" viewBox="0 0 1440 490" version="1.1" xmlns="http://www.w3.org/2000/svg"><defs><linearGradient id="sw-gradient-0" x1="0" x2="0" y1="1" y2="0"><stop stop-color="rgba(229.487, 55.787, 0, 1)" offset="0%"/><stop stop-color="rgba(255, 183.327, 24.89, 1)" offset="100%"/></linearGradient></defs><path style="transform:translate(0, 0px); opacity:1" fill="url(#sw-gradient-0)" d="M0,49L40,98C80,147,160,245,240,245C320,245,400,147,480,114.3C560,82,640,114,720,114.3C800,114,880,82,960,81.7C1040,82,1120,114,1200,179.7C1280,245,1360,343,1440,326.7C1520,310,1600,180,1680,155.2C1760,131,1840,212,1920,204.2C2000,196,2080,98,2160,122.5C2240,147,2320,294,2400,334.8C2480,376,2560,310,2640,294C2720,278,2800,310,2880,343C2960,376,3040,408,3120,359.3C3200,310,3280,180,3360,130.7C3440,82,3520,114,3600,179.7C3680,245,3760,343,3840,375.7C3920,408,4000,376,4080,310.3C4160,245,4240,147,4320,98C4400,49,4480,49,4560,57.2C4640,65,4720,82,4800,89.8C4880,98,4960,98,5040,114.3C5120,131,5200,163,5280,187.8C5360,212,5440,229,5520,269.5C5600,310,5680,376,5720,408.3L5760,441L5760,490L5720,490C5680,490,5600,490,5520,490C5440,490,5360,490,5280,490C5200,490,5120,490,5040,490C4960,490,4880,490,4800,490C4720,490,4640,490,4560,490C4480,490,4400,490,4320,490C4240,490,4160,490,4080,490C4000,490,3920,490,3840,490C3760,490,3680,490,3600,490C3520,490,3440,490,3360,490C3280,490,3200,490,3120,490C3040,490,2960,490,2880,490C2800,490,2720,490,2640,490C2560,490,2480,490,2400,490C2320,490,2240,490,2160,490C2080,490,2000,490,1920,490C1840,490,1760,490,1680,490C1600,490,1520,490,1440,490C1360,490,1280,490,1200,490C1120,490,1040,490,960,490C880,490,800,490,720,490C640,490,560,490,480,490C400,490,320,490,240,490C160,490,80,490,40,490L0,490Z"/><defs><linearGradient id="sw-gradient-1" x1="0" x2="0" y1="1" y2="0"><stop stop-color="rgba(243, 106, 62, 1)" offset="0%"/><stop stop-color="rgba(255, 179, 11, 1)" offset="100%"/></linearGradient></defs><path style="transform:translate(0, 50px); opacity:0.9" fill="url(#sw-gradient-1)" d="M0,49L40,89.8C80,131,160,212,240,212.3C320,212,400,131,480,114.3C560,98,640,147,720,163.3C800,180,880,163,960,171.5C1040,180,1120,212,1200,212.3C1280,212,1360,180,1440,147C1520,114,1600,82,1680,81.7C1760,82,1840,114,1920,130.7C2000,147,2080,147,2160,138.8C2240,131,2320,114,2400,147C2480,180,2560,261,2640,269.5C2720,278,2800,212,2880,187.8C2960,163,3040,180,3120,163.3C3200,147,3280,98,3360,114.3C3440,131,3520,212,3600,253.2C3680,294,3760,294,3840,269.5C3920,245,4000,196,4080,212.3C4160,229,4240,310,4320,359.3C4400,408,4480,425,4560,383.8C4640,343,4720,245,4800,196C4880,147,4960,147,5040,163.3C5120,180,5200,212,5280,253.2C5360,294,5440,343,5520,343C5600,343,5680,294,5720,269.5L5760,245L5760,490L5720,490C5680,490,5600,490,5520,490C5440,490,5360,490,5280,490C5200,490,5120,490,5040,490C4960,490,4880,490,4800,490C4720,490,4640,490,4560,490C4480,490,4400,490,4320,490C4240,490,4160,490,4080,490C4000,490,3920,490,3840,490C3760,490,3680,490,3600,490C3520,490,3440,490,3360,490C3280,490,3200,490,3120,490C3040,490,2960,490,2880,490C2800,490,2720,490,2640,490C2560,490,2480,490,2400,490C2320,490,2240,490,2160,490C2080,490,2000,490,1920,490C1840,490,1760,490,1680,490C1600,490,1520,490,1440,490C1360,490,1280,490,1200,490C1120,490,1040,490,960,490C880,490,800,490,720,490C640,490,560,490,480,490C400,490,320,490,240,490C160,490,80,490,40,490L0,490Z"/></svg>