<?xml version="1.0" standalone="no"?>
<svg xmlns:xlink="http://www.w3.org/1999/xlink" id="wave" style="transform:rotate(180deg); transition: 0.3s" viewBox="0 0 1440 260" version="1.1" xmlns="http://www.w3.org/2000/svg"><defs><linearGradient id="sw-gradient-0" x1="0" x2="0" y1="1" y2="0"><stop stop-color="rgba(229.487, 84.525, 37.968, 1)" offset="0%"/><stop stop-color="rgba(255, 179, 11, 1)" offset="100%"/></linearGradient></defs><path style="transform:translate(0, 0px); opacity:1" fill="url(#sw-gradient-0)" d="M0,52L120,52C240,52,480,52,720,43.3C960,35,1200,17,1440,30.3C1680,43,1920,87,2160,117C2400,147,2640,165,2880,169C3120,173,3360,165,3600,164.7C3840,165,4080,173,4320,182C4560,191,4800,199,5040,208C5280,217,5520,225,5760,229.7C6000,234,6240,234,6480,212.3C6720,191,6960,147,7200,147.3C7440,147,7680,191,7920,212.3C8160,234,8400,234,8640,199.3C8880,165,9120,95,9360,82.3C9600,69,9840,113,10080,138.7C10320,165,10560,173,10800,173.3C11040,173,11280,165,11520,134.3C11760,104,12000,52,12240,26C12480,0,12720,0,12960,26C13200,52,13440,104,13680,134.3C13920,165,14160,173,14400,156C14640,139,14880,95,15120,99.7C15360,104,15600,156,15840,173.3C16080,191,16320,173,16560,138.7C16800,104,17040,52,17160,26L17280,0L17280,260L17160,260C17040,260,16800,260,16560,260C16320,260,16080,260,15840,260C15600,260,15360,260,15120,260C14880,260,14640,260,14400,260C14160,260,13920,260,13680,260C13440,260,13200,260,12960,260C12720,260,12480,260,12240,260C12000,260,11760,260,11520,260C11280,260,11040,260,10800,260C10560,260,10320,260,10080,260C9840,260,9600,260,9360,260C9120,260,8880,260,8640,260C8400,260,8160,260,7920,260C7680,260,7440,260,7200,260C6960,260,6720,260,6480,260C6240,260,6000,260,5760,260C5520,260,5280,260,5040,260C4800,260,4560,260,4320,260C4080,260,3840,260,3600,260C3360,260,3120,260,2880,260C2640,260,2400,260,2160,260C1920,260,1680,260,1440,260C1200,260,960,260,720,260C480,260,240,260,120,260L0,260Z"/></svg>