<?xml version="1.0" standalone="no"?>
<svg xmlns:xlink="http://www.w3.org/1999/xlink" id="wave" style="transform:rotate(0deg); transition: 0.3s" viewBox="0 0 1440 460" version="1.1" xmlns="http://www.w3.org/2000/svg"><defs><linearGradient id="sw-gradient-0" x1="0" x2="0" y1="1" y2="0"><stop stop-color="rgba(229.487, 84.525, 37.968, 1)" offset="0%"/><stop stop-color="rgba(255, 179, 11, 1)" offset="100%"/></linearGradient></defs><path style="transform:translate(0, 0px); opacity:1" fill="url(#sw-gradient-0)" d="M0,92L120,92C240,92,480,92,720,76.7C960,61,1200,31,1440,53.7C1680,77,1920,153,2160,207C2400,261,2640,291,2880,299C3120,307,3360,291,3600,291.3C3840,291,4080,307,4320,322C4560,337,4800,353,5040,368C5280,383,5520,399,5760,406.3C6000,414,6240,414,6480,375.7C6720,337,6960,261,7200,260.7C7440,261,7680,337,7920,375.7C8160,414,8400,414,8640,352.7C8880,291,9120,169,9360,145.7C9600,123,9840,199,10080,245.3C10320,291,10560,307,10800,306.7C11040,307,11280,291,11520,237.7C11760,184,12000,92,12240,46C12480,0,12720,0,12960,46C13200,92,13440,184,13680,237.7C13920,291,14160,307,14400,276C14640,245,14880,169,15120,176.3C15360,184,15600,276,15840,306.7C16080,337,16320,307,16560,245.3C16800,184,17040,92,17160,46L17280,0L17280,460L17160,460C17040,460,16800,460,16560,460C16320,460,16080,460,15840,460C15600,460,15360,460,15120,460C14880,460,14640,460,14400,460C14160,460,13920,460,13680,460C13440,460,13200,460,12960,460C12720,460,12480,460,12240,460C12000,460,11760,460,11520,460C11280,460,11040,460,10800,460C10560,460,10320,460,10080,460C9840,460,9600,460,9360,460C9120,460,8880,460,8640,460C8400,460,8160,460,7920,460C7680,460,7440,460,7200,460C6960,460,6720,460,6480,460C6240,460,6000,460,5760,460C5520,460,5280,460,5040,460C4800,460,4560,460,4320,460C4080,460,3840,460,3600,460C3360,460,3120,460,2880,460C2640,460,2400,460,2160,460C1920,460,1680,460,1440,460C1200,460,960,460,720,460C480,460,240,460,120,460L0,460Z"/></svg>